<?xml version="1.0" encoding="UTF-8" standalone="no"?>
<!DOCTYPE svg PUBLIC "-//W3C//DTD SVG 1.1//EN"
 "http://www.w3.org/Graphics/SVG/1.1/DTD/svg11.dtd">
<!-- Generated by graphviz version 2.40.1 (20161225.0304)
 -->
<!-- Title: deps Pages: 1 -->
<svg width="4145pt" height="404pt"
 viewBox="0.00 0.00 4145.47 404.00" xmlns="http://www.w3.org/2000/svg" xmlns:xlink="http://www.w3.org/1999/xlink">
<g id="graph0" class="graph" transform="scale(1 1) rotate(0) translate(4 400)">
<title>deps</title>
<polygon fill="#ffffff" stroke="transparent" points="-4,4 -4,-400 4141.4717,-400 4141.4717,4 -4,4"/>
<!-- n0 -->
<g id="node1" class="node">
<title>n0</title>
<ellipse fill="none" stroke="#000000" cx="2132.7376" cy="-162" rx="141.8751" ry="18"/>
<text text-anchor="middle" x="2132.7376" y="-158.3" font-family="Times,serif" font-size="14.00" fill="#000000">&lt;x86_64&#45;linux&#45;gnu/bits/typesizes.h&gt;</text>
</g>
<!-- n1 -->
<g id="node2" class="node">
<title>n1</title>
<ellipse fill="none" stroke="#000000" cx="3594.7376" cy="-306" rx="67.6881" ry="18"/>
<text text-anchor="middle" x="3594.7376" y="-302.3" font-family="Times,serif" font-size="14.00" fill="#000000">&lt;stdc&#45;predef.h&gt;</text>
</g>
<!-- n2 -->
<g id="node3" class="node">
<title>n2</title>
<ellipse fill="none" stroke="#000000" cx="3581.7376" cy="-162" rx="180.8681" ry="18"/>
<text text-anchor="middle" x="3581.7376" y="-158.3" font-family="Times,serif" font-size="14.00" fill="#000000">&lt;x86_64&#45;linux&#45;gnu/bits/types/struct_timeval.h&gt;</text>
</g>
<!-- n3 -->
<g id="node4" class="node">
<title>n3</title>
<ellipse fill="none" stroke="#000000" cx="720.7376" cy="-162" rx="164.3708" ry="18"/>
<text text-anchor="middle" x="720.7376" y="-158.3" font-family="Times,serif" font-size="14.00" fill="#000000">&lt;x86_64&#45;linux&#45;gnu/bits/floatn&#45;common.h&gt;</text>
</g>
<!-- n21 -->
<g id="node22" class="node">
<title>n21</title>
<ellipse fill="none" stroke="#000000" cx="688.7376" cy="-90" rx="151.3732" ry="18"/>
<text text-anchor="middle" x="688.7376" y="-86.3" font-family="Times,serif" font-size="14.00" fill="#000000">&lt;x86_64&#45;linux&#45;gnu/bits/long&#45;double.h&gt;</text>
</g>
<!-- n3&#45;&gt;n21 -->
<g id="edge1" class="edge">
<title>n3&#45;&gt;n21</title>
<path fill="none" stroke="#000000" d="M712.6626,-143.8314C709.1274,-135.8771 704.9016,-126.369 700.992,-117.5723"/>
<polygon fill="#000000" stroke="#000000" points="704.1811,-116.1299 696.9213,-108.4133 697.7844,-118.9729 704.1811,-116.1299"/>
</g>
<!-- n4 -->
<g id="node5" class="node">
<title>n4</title>
<ellipse fill="none" stroke="#000000" cx="2555.7376" cy="-90" rx="129.1772" ry="18"/>
<text text-anchor="middle" x="2555.7376" y="-86.3" font-family="Times,serif" font-size="14.00" fill="#000000">&lt;x86_64&#45;linux&#45;gnu/bits/select.h&gt;</text>
</g>
<!-- n37 -->
<g id="node38" class="node">
<title>n37</title>
<ellipse fill="none" stroke="#000000" cx="2302.7376" cy="-18" rx="141.075" ry="18"/>
<text text-anchor="middle" x="2302.7376" y="-14.3" font-family="Times,serif" font-size="14.00" fill="#000000">&lt;x86_64&#45;linux&#45;gnu/bits/wordsize.h&gt;</text>
</g>
<!-- n4&#45;&gt;n37 -->
<g id="edge2" class="edge">
<title>n4&#45;&gt;n37</title>
<path fill="none" stroke="#000000" d="M2498.644,-73.752C2460.5408,-62.9084 2410.2695,-48.602 2370.1921,-37.1965"/>
<polygon fill="#000000" stroke="#000000" points="2371.0752,-33.8089 2360.4991,-34.438 2369.1591,-40.5416 2371.0752,-33.8089"/>
</g>
<!-- n5 -->
<g id="node6" class="node">
<title>n5</title>
<ellipse fill="none" stroke="#000000" cx="2476.7376" cy="-162" rx="146.4744" ry="18"/>
<text text-anchor="middle" x="2476.7376" y="-158.3" font-family="Times,serif" font-size="14.00" fill="#000000">&lt;x86_64&#45;linux&#45;gnu/bits/sysmacros.h&gt;</text>
</g>
<!-- n6 -->
<g id="node7" class="node">
<title>n6</title>
<ellipse fill="none" stroke="#000000" cx="738.7376" cy="-306" rx="167.0704" ry="18"/>
<text text-anchor="middle" x="738.7376" y="-302.3" font-family="Times,serif" font-size="14.00" fill="#000000">&lt;x86_64&#45;linux&#45;gnu/bits/libc&#45;header&#45;start.h&gt;</text>
</g>
<!-- n27 -->
<g id="node28" class="node">
<title>n27</title>
<ellipse fill="none" stroke="#000000" cx="411.7376" cy="-234" rx="55.7903" ry="18"/>
<text text-anchor="middle" x="411.7376" y="-230.3" font-family="Times,serif" font-size="14.00" fill="#000000">&lt;features.h&gt;</text>
</g>
<!-- n6&#45;&gt;n27 -->
<g id="edge3" class="edge">
<title>n6&#45;&gt;n27</title>
<path fill="none" stroke="#000000" d="M664.9447,-289.752C605.1837,-276.5936 522.2642,-258.3361 467.8311,-246.3509"/>
<polygon fill="#000000" stroke="#000000" points="468.5294,-242.9209 458.0107,-244.1886 467.0241,-249.7571 468.5294,-242.9209"/>
</g>
<!-- n7 -->
<g id="node8" class="node">
<title>n7</title>
<ellipse fill="none" stroke="#000000" cx="1033.7376" cy="-234" rx="163.2712" ry="18"/>
<text text-anchor="middle" x="1033.7376" y="-230.3" font-family="Times,serif" font-size="14.00" fill="#000000">&lt;x86_64&#45;linux&#45;gnu/bits/types/clockid_t.h&gt;</text>
</g>
<!-- n8 -->
<g id="node9" class="node">
<title>n8</title>
<ellipse fill="none" stroke="#000000" cx="3741.7376" cy="-234" rx="50.0912" ry="18"/>
<text text-anchor="middle" x="3741.7376" y="-230.3" font-family="Times,serif" font-size="14.00" fill="#000000">&lt;stddef.h&gt;</text>
</g>
<!-- n9 -->
<g id="node10" class="node">
<title>n9</title>
<ellipse fill="none" stroke="#000000" cx="2307.7376" cy="-234" rx="128.0773" ry="18"/>
<text text-anchor="middle" x="2307.7376" y="-230.3" font-family="Times,serif" font-size="14.00" fill="#000000">&lt;x86_64&#45;linux&#45;gnu/bits/types.h&gt;</text>
</g>
<!-- n9&#45;&gt;n0 -->
<g id="edge4" class="edge">
<title>n9&#45;&gt;n0</title>
<path fill="none" stroke="#000000" d="M2266.265,-216.937C2241.6899,-206.8261 2210.343,-193.9291 2184.198,-183.1723"/>
<polygon fill="#000000" stroke="#000000" points="2185.4028,-179.8834 2174.8232,-179.3152 2182.7394,-186.3569 2185.4028,-179.8834"/>
</g>
<!-- n9&#45;&gt;n37 -->
<g id="edge5" class="edge">
<title>n9&#45;&gt;n37</title>
<path fill="none" stroke="#000000" d="M2307.3199,-215.9555C2306.4504,-178.3938 2304.4402,-91.5541 2303.3952,-46.4103"/>
<polygon fill="#000000" stroke="#000000" points="2306.8882,-46.0614 2303.1576,-36.1451 2299.8901,-46.2234 2306.8882,-46.0614"/>
</g>
<!-- n10 -->
<g id="node11" class="node">
<title>n10</title>
<ellipse fill="none" stroke="#000000" cx="3225.7376" cy="-90" rx="165.9709" ry="18"/>
<text text-anchor="middle" x="3225.7376" y="-86.3" font-family="Times,serif" font-size="14.00" fill="#000000">&lt;x86_64&#45;linux&#45;gnu/bits/types/__sigset_t.h&gt;</text>
</g>
<!-- n11 -->
<g id="node12" class="node">
<title>n11</title>
<ellipse fill="none" stroke="#000000" cx="3769.7376" cy="-90" rx="172.4698" ry="18"/>
<text text-anchor="middle" x="3769.7376" y="-86.3" font-family="Times,serif" font-size="14.00" fill="#000000">&lt;x86_64&#45;linux&#45;gnu/bits/pthreadtypes&#45;arch.h&gt;</text>
</g>
<!-- n11&#45;&gt;n37 -->
<g id="edge6" class="edge">
<title>n11&#45;&gt;n37</title>
<path fill="none" stroke="#000000" d="M3613.785,-82.3459C3327.0797,-68.2745 2720.4202,-38.4998 2444.5891,-24.962"/>
<polygon fill="#000000" stroke="#000000" points="2444.6754,-21.4622 2434.5158,-24.4676 2444.3322,-28.4537 2444.6754,-21.4622"/>
</g>
<!-- n12 -->
<g id="node13" class="node">
<title>n12</title>
<ellipse fill="none" stroke="#000000" cx="139.7376" cy="-90" rx="139.9756" ry="18"/>
<text text-anchor="middle" x="139.7376" y="-86.3" font-family="Times,serif" font-size="14.00" fill="#000000">&lt;x86_64&#45;linux&#45;gnu/gnu/stubs&#45;64.h&gt;</text>
</g>
<!-- n13 -->
<g id="node14" class="node">
<title>n13</title>
<ellipse fill="none" stroke="#000000" cx="411.7376" cy="-162" rx="126.1777" ry="18"/>
<text text-anchor="middle" x="411.7376" y="-158.3" font-family="Times,serif" font-size="14.00" fill="#000000">&lt;x86_64&#45;linux&#45;gnu/sys/cdefs.h&gt;</text>
</g>
<!-- n13&#45;&gt;n21 -->
<g id="edge8" class="edge">
<title>n13&#45;&gt;n21</title>
<path fill="none" stroke="#000000" d="M472.5264,-146.1993C514.7233,-135.2312 571.1493,-120.5645 615.7767,-108.9646"/>
<polygon fill="#000000" stroke="#000000" points="616.8906,-112.2914 625.6885,-106.3882 615.1296,-105.5165 616.8906,-112.2914"/>
</g>
<!-- n13&#45;&gt;n37 -->
<g id="edge7" class="edge">
<title>n13&#45;&gt;n37</title>
<path fill="none" stroke="#000000" d="M427.8541,-144.0782C448.6811,-122.3575 487.2278,-86.8267 528.7376,-72 604.5007,-44.9384 1737.6396,-26.0877 2152.2389,-20.0647"/>
<polygon fill="#000000" stroke="#000000" points="2152.5495,-23.5607 2162.4977,-19.9162 2152.448,-16.5614 2152.5495,-23.5607"/>
</g>
<!-- n14 -->
<g id="node15" class="node">
<title>n14</title>
<ellipse fill="none" stroke="#000000" cx="1368.7376" cy="-234" rx="153.2729" ry="18"/>
<text text-anchor="middle" x="1368.7376" y="-230.3" font-family="Times,serif" font-size="14.00" fill="#000000">&lt;x86_64&#45;linux&#45;gnu/bits/types/time_t.h&gt;</text>
</g>
<!-- n15 -->
<g id="node16" class="node">
<title>n15</title>
<ellipse fill="none" stroke="#000000" cx="3219.7376" cy="-234" rx="128.0773" ry="18"/>
<text text-anchor="middle" x="3219.7376" y="-230.3" font-family="Times,serif" font-size="14.00" fill="#000000">&lt;x86_64&#45;linux&#45;gnu/sys/select.h&gt;</text>
</g>
<!-- n15&#45;&gt;n2 -->
<g id="edge10" class="edge">
<title>n15&#45;&gt;n2</title>
<path fill="none" stroke="#000000" d="M3293.8672,-219.256C3350.8867,-207.9151 3429.9514,-192.1895 3490.7959,-180.0879"/>
<polygon fill="#000000" stroke="#000000" points="3491.6561,-183.4854 3500.7812,-178.1018 3490.2905,-176.6199 3491.6561,-183.4854"/>
</g>
<!-- n15&#45;&gt;n4 -->
<g id="edge12" class="edge">
<title>n15&#45;&gt;n4</title>
<path fill="none" stroke="#000000" d="M3128.0563,-221.3914C3112.9298,-219.473 3097.4037,-217.6019 3082.7376,-216 2991.1565,-205.9971 2753.7563,-217.7891 2669.7376,-180 2648.5204,-170.4572 2649.7088,-158.774 2631.7376,-144 2618.8143,-133.3759 2603.9376,-122.5281 2590.7915,-113.369"/>
<polygon fill="#000000" stroke="#000000" points="2592.6606,-110.4064 2582.4405,-107.6134 2588.6881,-116.1701 2592.6606,-110.4064"/>
</g>
<!-- n20 -->
<g id="node21" class="node">
<title>n20</title>
<ellipse fill="none" stroke="#000000" cx="3225.7376" cy="-162" rx="157.0724" ry="18"/>
<text text-anchor="middle" x="3225.7376" y="-158.3" font-family="Times,serif" font-size="14.00" fill="#000000">&lt;x86_64&#45;linux&#45;gnu/bits/types/sigset_t.h&gt;</text>
</g>
<!-- n15&#45;&gt;n20 -->
<g id="edge11" class="edge">
<title>n15&#45;&gt;n20</title>
<path fill="none" stroke="#000000" d="M3221.2517,-215.8314C3221.8934,-208.131 3222.6564,-198.9743 3223.3695,-190.4166"/>
<polygon fill="#000000" stroke="#000000" points="3226.8605,-190.6694 3224.2032,-180.4133 3219.8847,-190.088 3226.8605,-190.6694"/>
</g>
<!-- n39 -->
<g id="node40" class="node">
<title>n39</title>
<ellipse fill="none" stroke="#000000" cx="2864.7376" cy="-162" rx="185.7671" ry="18"/>
<text text-anchor="middle" x="2864.7376" y="-158.3" font-family="Times,serif" font-size="14.00" fill="#000000">&lt;x86_64&#45;linux&#45;gnu/bits/types/struct_timespec.h&gt;</text>
</g>
<!-- n15&#45;&gt;n39 -->
<g id="edge9" class="edge">
<title>n15&#45;&gt;n39</title>
<path fill="none" stroke="#000000" d="M3146.6118,-219.1689C3091.0649,-207.903 3014.3675,-192.3475 2954.9994,-180.3066"/>
<polygon fill="#000000" stroke="#000000" points="2955.3735,-176.8113 2944.8773,-178.2537 2953.982,-183.6716 2955.3735,-176.8113"/>
</g>
<!-- n16 -->
<g id="node17" class="node">
<title>n16</title>
<ellipse fill="none" stroke="#000000" cx="1685.7376" cy="-234" rx="145.6742" ry="18"/>
<text text-anchor="middle" x="1685.7376" y="-230.3" font-family="Times,serif" font-size="14.00" fill="#000000">&lt;x86_64&#45;linux&#45;gnu/bits/stdint&#45;intn.h&gt;</text>
</g>
<!-- n17 -->
<g id="node18" class="node">
<title>n17</title>
<ellipse fill="none" stroke="#000000" cx="2747.7376" cy="-306" rx="141.8751" ry="18"/>
<text text-anchor="middle" x="2747.7376" y="-302.3" font-family="Times,serif" font-size="14.00" fill="#000000">&lt;x86_64&#45;linux&#45;gnu/bits/waitflags.h&gt;</text>
</g>
<!-- n18 -->
<g id="node19" class="node">
<title>n18</title>
<ellipse fill="none" stroke="#000000" cx="2005.7376" cy="-234" rx="155.9723" ry="18"/>
<text text-anchor="middle" x="2005.7376" y="-230.3" font-family="Times,serif" font-size="14.00" fill="#000000">&lt;x86_64&#45;linux&#45;gnu/bits/types/timer_t.h&gt;</text>
</g>
<!-- n19 -->
<g id="node20" class="node">
<title>n19</title>
<ellipse fill="none" stroke="#000000" cx="139.7376" cy="-162" rx="128.0773" ry="18"/>
<text text-anchor="middle" x="139.7376" y="-158.3" font-family="Times,serif" font-size="14.00" fill="#000000">&lt;x86_64&#45;linux&#45;gnu/gnu/stubs.h&gt;</text>
</g>
<!-- n19&#45;&gt;n12 -->
<g id="edge13" class="edge">
<title>n19&#45;&gt;n12</title>
<path fill="none" stroke="#000000" d="M139.7376,-143.8314C139.7376,-136.131 139.7376,-126.9743 139.7376,-118.4166"/>
<polygon fill="#000000" stroke="#000000" points="143.2377,-118.4132 139.7376,-108.4133 136.2377,-118.4133 143.2377,-118.4132"/>
</g>
<!-- n20&#45;&gt;n10 -->
<g id="edge14" class="edge">
<title>n20&#45;&gt;n10</title>
<path fill="none" stroke="#000000" d="M3225.7376,-143.8314C3225.7376,-136.131 3225.7376,-126.9743 3225.7376,-118.4166"/>
<polygon fill="#000000" stroke="#000000" points="3229.2377,-118.4132 3225.7376,-108.4133 3222.2377,-118.4133 3229.2377,-118.4132"/>
</g>
<!-- n22 -->
<g id="node23" class="node">
<title>n22</title>
<ellipse fill="none" stroke="#000000" cx="1706.7376" cy="-306" rx="129.9769" ry="18"/>
<text text-anchor="middle" x="1706.7376" y="-302.3" font-family="Times,serif" font-size="14.00" fill="#000000">&lt;x86_64&#45;linux&#45;gnu/bits/floatn.h&gt;</text>
</g>
<!-- n22&#45;&gt;n3 -->
<g id="edge15" class="edge">
<title>n22&#45;&gt;n3</title>
<path fill="none" stroke="#000000" d="M1578.4109,-302.9384C1322.6332,-296.2744 771.0381,-278.8636 739.7376,-252 722.2977,-237.0323 718.4615,-210.4506 718.4454,-190.0431"/>
<polygon fill="#000000" stroke="#000000" points="721.9444,-190.1248 718.7334,-180.0283 714.9473,-189.9236 721.9444,-190.1248"/>
</g>
<!-- n23 -->
<g id="node24" class="node">
<title>n23</title>
<ellipse fill="none" stroke="#000000" cx="2598.7376" cy="-234" rx="144.8743" ry="18"/>
<text text-anchor="middle" x="2598.7376" y="-230.3" font-family="Times,serif" font-size="14.00" fill="#000000">&lt;x86_64&#45;linux&#45;gnu/sys/sysmacros.h&gt;</text>
</g>
<!-- n23&#45;&gt;n5 -->
<g id="edge16" class="edge">
<title>n23&#45;&gt;n5</title>
<path fill="none" stroke="#000000" d="M2568.5803,-216.2022C2552.5969,-206.7694 2532.7797,-195.074 2515.6494,-184.9643"/>
<polygon fill="#000000" stroke="#000000" points="2517.3618,-181.9109 2506.9708,-179.8425 2513.804,-187.9394 2517.3618,-181.9109"/>
</g>
<!-- n24 -->
<g id="node25" class="node">
<title>n24</title>
<ellipse fill="none" stroke="#000000" cx="800.7376" cy="-234" rx="51.9908" ry="18"/>
<text text-anchor="middle" x="800.7376" y="-230.3" font-family="Times,serif" font-size="14.00" fill="#000000">&lt;endian.h&gt;</text>
</g>
<!-- n29 -->
<g id="node30" class="node">
<title>n29</title>
<ellipse fill="none" stroke="#000000" cx="1743.7376" cy="-162" rx="142.1749" ry="18"/>
<text text-anchor="middle" x="1743.7376" y="-158.3" font-family="Times,serif" font-size="14.00" fill="#000000">&lt;x86_64&#45;linux&#45;gnu/bits/byteswap.h&gt;</text>
</g>
<!-- n24&#45;&gt;n29 -->
<g id="edge19" class="edge">
<title>n24&#45;&gt;n29</title>
<path fill="none" stroke="#000000" d="M838.1612,-221.4778C845.8804,-219.3146 854.0126,-217.3354 861.7376,-216 1146.4034,-166.7905 1222.4836,-199.1267 1510.7376,-180 1544.1233,-177.7847 1580.179,-175.1288 1613.7197,-172.5459"/>
<polygon fill="#000000" stroke="#000000" points="1614.3422,-176.0083 1624.0424,-171.7472 1613.8022,-169.0292 1614.3422,-176.0083"/>
</g>
<!-- n34 -->
<g id="node35" class="node">
<title>n34</title>
<ellipse fill="none" stroke="#000000" cx="1060.7376" cy="-162" rx="157.0724" ry="18"/>
<text text-anchor="middle" x="1060.7376" y="-158.3" font-family="Times,serif" font-size="14.00" fill="#000000">&lt;x86_64&#45;linux&#45;gnu/bits/uintn&#45;identity.h&gt;</text>
</g>
<!-- n24&#45;&gt;n34 -->
<g id="edge18" class="edge">
<title>n24&#45;&gt;n34</title>
<path fill="none" stroke="#000000" d="M840.4048,-222.1577C847.5006,-220.0785 854.832,-217.9555 861.7376,-216 903.6316,-204.1363 950.6384,-191.3561 988.4424,-181.2083"/>
<polygon fill="#000000" stroke="#000000" points="989.5937,-184.5234 998.3464,-178.5535 987.7812,-177.7621 989.5937,-184.5234"/>
</g>
<!-- n40 -->
<g id="node41" class="node">
<title>n40</title>
<ellipse fill="none" stroke="#000000" cx="1368.7376" cy="-162" rx="132.6765" ry="18"/>
<text text-anchor="middle" x="1368.7376" y="-158.3" font-family="Times,serif" font-size="14.00" fill="#000000">&lt;x86_64&#45;linux&#45;gnu/bits/endian.h&gt;</text>
</g>
<!-- n24&#45;&gt;n40 -->
<g id="edge17" class="edge">
<title>n24&#45;&gt;n40</title>
<path fill="none" stroke="#000000" d="M838.8618,-221.5528C846.3814,-219.4384 854.2597,-217.4585 861.7376,-216 1021.7321,-184.7941 1064.7532,-198.2513 1226.7376,-180 1238.4093,-178.6849 1250.6116,-177.2418 1262.7509,-175.7629"/>
<polygon fill="#000000" stroke="#000000" points="1263.4211,-179.207 1272.9199,-174.5141 1262.5678,-172.2591 1263.4211,-179.207"/>
</g>
<!-- n25 -->
<g id="node26" class="node">
<title>n25</title>
<ellipse fill="none" stroke="#000000" cx="3051.7376" cy="-306" rx="144.0747" ry="18"/>
<text text-anchor="middle" x="3051.7376" y="-302.3" font-family="Times,serif" font-size="14.00" fill="#000000">&lt;x86_64&#45;linux&#45;gnu/bits/waitstatus.h&gt;</text>
</g>
<!-- n26 -->
<g id="node27" class="node">
<title>n26</title>
<ellipse fill="none" stroke="#000000" cx="3958.7376" cy="-162" rx="178.9686" ry="18"/>
<text text-anchor="middle" x="3958.7376" y="-158.3" font-family="Times,serif" font-size="14.00" fill="#000000">&lt;x86_64&#45;linux&#45;gnu/bits/thread&#45;shared&#45;types.h&gt;</text>
</g>
<!-- n26&#45;&gt;n11 -->
<g id="edge20" class="edge">
<title>n26&#45;&gt;n11</title>
<path fill="none" stroke="#000000" d="M3912.986,-144.5708C3886.5022,-134.4818 3852.9843,-121.713 3825.0301,-111.0638"/>
<polygon fill="#000000" stroke="#000000" points="3825.986,-107.6826 3815.3951,-107.3933 3823.494,-114.2241 3825.986,-107.6826"/>
</g>
<!-- n27&#45;&gt;n13 -->
<g id="edge21" class="edge">
<title>n27&#45;&gt;n13</title>
<path fill="none" stroke="#000000" d="M411.7376,-215.8314C411.7376,-208.131 411.7376,-198.9743 411.7376,-190.4166"/>
<polygon fill="#000000" stroke="#000000" points="415.2377,-190.4132 411.7376,-180.4133 408.2377,-190.4133 415.2377,-190.4132"/>
</g>
<!-- n27&#45;&gt;n19 -->
<g id="edge22" class="edge">
<title>n27&#45;&gt;n19</title>
<path fill="none" stroke="#000000" d="M368.3376,-222.5118C325.6618,-211.2152 259.8194,-193.7864 209.7385,-180.5297"/>
<polygon fill="#000000" stroke="#000000" points="210.5067,-177.1125 199.944,-177.937 208.7154,-183.8795 210.5067,-177.1125"/>
</g>
<!-- n28 -->
<g id="node29" class="node">
<title>n28</title>
<ellipse fill="none" stroke="#000000" cx="1743.7376" cy="-90" rx="154.0727" ry="18"/>
<text text-anchor="middle" x="1743.7376" y="-86.3" font-family="Times,serif" font-size="14.00" fill="#000000">&lt;x86_64&#45;linux&#45;gnu/bits/byteswap&#45;16.h&gt;</text>
</g>
<!-- n29&#45;&gt;n28 -->
<g id="edge23" class="edge">
<title>n29&#45;&gt;n28</title>
<path fill="none" stroke="#000000" d="M1743.7376,-143.8314C1743.7376,-136.131 1743.7376,-126.9743 1743.7376,-118.4166"/>
<polygon fill="#000000" stroke="#000000" points="1747.2377,-118.4132 1743.7376,-108.4133 1740.2377,-118.4133 1747.2377,-118.4132"/>
</g>
<!-- n29&#45;&gt;n37 -->
<g id="edge24" class="edge">
<title>n29&#45;&gt;n37</title>
<path fill="none" stroke="#000000" d="M1806.5049,-145.831C1910.8816,-118.9432 2119.564,-65.186 2230.1223,-36.7059"/>
<polygon fill="#000000" stroke="#000000" points="2231.0482,-40.0817 2239.8589,-34.1977 2229.3019,-33.303 2231.0482,-40.0817"/>
</g>
<!-- n30 -->
<g id="node31" class="node">
<title>n30</title>
<ellipse fill="none" stroke="#000000" cx="3361.7376" cy="-306" rx="147.5738" ry="18"/>
<text text-anchor="middle" x="3361.7376" y="-302.3" font-family="Times,serif" font-size="14.00" fill="#000000">&lt;x86_64&#45;linux&#45;gnu/bits/stdlib&#45;float.h&gt;</text>
</g>
<!-- n31 -->
<g id="node32" class="node">
<title>n31</title>
<ellipse fill="none" stroke="#000000" cx="2917.7376" cy="-234" rx="155.9723" ry="18"/>
<text text-anchor="middle" x="2917.7376" y="-230.3" font-family="Times,serif" font-size="14.00" fill="#000000">&lt;x86_64&#45;linux&#45;gnu/bits/types/clock_t.h&gt;</text>
</g>
<!-- n32 -->
<g id="node33" class="node">
<title>n32</title>
<ellipse fill="none" stroke="#000000" cx="2500.7376" cy="-378" rx="48.1917" ry="18"/>
<text text-anchor="middle" x="2500.7376" y="-374.3" font-family="Times,serif" font-size="14.00" fill="#000000">&lt;stdlib.h&gt;</text>
</g>
<!-- n32&#45;&gt;n6 -->
<g id="edge27" class="edge">
<title>n32&#45;&gt;n6</title>
<path fill="none" stroke="#000000" d="M2452.6945,-376.0368C2229.7736,-366.9277 1290.7728,-328.5576 905.1299,-312.7992"/>
<polygon fill="#000000" stroke="#000000" points="905.1375,-309.2967 895.0029,-312.3854 904.8516,-316.2909 905.1375,-309.2967"/>
</g>
<!-- n32&#45;&gt;n8 -->
<g id="edge30" class="edge">
<title>n32&#45;&gt;n8</title>
<path fill="none" stroke="#000000" d="M2488.6337,-360.2477C2476.4757,-340.0264 2462.01,-307.2969 2480.7376,-288 2527.2653,-240.0579 3616.8157,-262.8434 3682.7376,-252 3687.1362,-251.2765 3691.6642,-250.3124 3696.1633,-249.205"/>
<polygon fill="#000000" stroke="#000000" points="3697.1543,-252.563 3705.9048,-246.5899 3695.3393,-245.8024 3697.1543,-252.563"/>
</g>
<!-- n32&#45;&gt;n17 -->
<g id="edge29" class="edge">
<title>n32&#45;&gt;n17</title>
<path fill="none" stroke="#000000" d="M2538.79,-366.9078C2576.6118,-355.8828 2635.405,-338.7447 2681.0033,-325.4529"/>
<polygon fill="#000000" stroke="#000000" points="2682.1931,-328.7518 2690.814,-322.5931 2680.2341,-322.0315 2682.1931,-328.7518"/>
</g>
<!-- n32&#45;&gt;n22 -->
<g id="edge26" class="edge">
<title>n32&#45;&gt;n22</title>
<path fill="none" stroke="#000000" d="M2453.7407,-373.7383C2332.0917,-362.7072 2003.9919,-332.9551 1825.8033,-316.7969"/>
<polygon fill="#000000" stroke="#000000" points="1825.8734,-313.289 1815.5981,-315.8715 1825.2411,-320.2604 1825.8734,-313.289"/>
</g>
<!-- n32&#45;&gt;n25 -->
<g id="edge32" class="edge">
<title>n32&#45;&gt;n25</title>
<path fill="none" stroke="#000000" d="M2546.297,-372.0467C2632.3796,-360.7981 2821.1136,-336.136 2942.0226,-320.3366"/>
<polygon fill="#000000" stroke="#000000" points="2942.5929,-323.7919 2952.0551,-319.0257 2941.6859,-316.851 2942.5929,-323.7919"/>
</g>
<!-- n32&#45;&gt;n30 -->
<g id="edge25" class="edge">
<title>n32&#45;&gt;n30</title>
<path fill="none" stroke="#000000" d="M2548.1712,-374.9798C2661.6934,-367.6166 2957.9432,-347.6042 3204.7376,-324 3218.1434,-322.7178 3232.1804,-321.2656 3246.1137,-319.7556"/>
<polygon fill="#000000" stroke="#000000" points="3246.671,-323.2156 3256.2304,-318.6475 3245.9087,-316.2572 3246.671,-323.2156"/>
</g>
<!-- n33 -->
<g id="node34" class="node">
<title>n33</title>
<ellipse fill="none" stroke="#000000" cx="2307.7376" cy="-306" rx="126.1777" ry="18"/>
<text text-anchor="middle" x="2307.7376" y="-302.3" font-family="Times,serif" font-size="14.00" fill="#000000">&lt;x86_64&#45;linux&#45;gnu/sys/types.h&gt;</text>
</g>
<!-- n32&#45;&gt;n33 -->
<g id="edge31" class="edge">
<title>n32&#45;&gt;n33</title>
<path fill="none" stroke="#000000" d="M2466.2331,-365.1278C2437.4174,-354.378 2395.8121,-338.8568 2362.4586,-326.414"/>
<polygon fill="#000000" stroke="#000000" points="2363.4355,-323.0429 2352.8429,-322.8268 2360.9888,-329.6014 2363.4355,-323.0429"/>
</g>
<!-- n35 -->
<g id="node36" class="node">
<title>n35</title>
<ellipse fill="none" stroke="#000000" cx="2538.7376" cy="-306" rx="49.2915" ry="18"/>
<text text-anchor="middle" x="2538.7376" y="-302.3" font-family="Times,serif" font-size="14.00" fill="#000000">&lt;alloca.h&gt;</text>
</g>
<!-- n32&#45;&gt;n35 -->
<g id="edge28" class="edge">
<title>n32&#45;&gt;n35</title>
<path fill="none" stroke="#000000" d="M2510.1309,-360.2022C2514.4699,-351.981 2519.7159,-342.041 2524.5245,-332.9301"/>
<polygon fill="#000000" stroke="#000000" points="2527.7484,-334.3201 2529.3207,-323.8425 2521.5577,-331.0527 2527.7484,-334.3201"/>
</g>
<!-- n33&#45;&gt;n7 -->
<g id="edge34" class="edge">
<title>n33&#45;&gt;n7</title>
<path fill="none" stroke="#000000" d="M2186.4039,-300.8888C1941.1743,-290.42 1393.978,-266.3218 1206.7376,-252 1191.1539,-250.808 1174.8,-249.3623 1158.6243,-247.814"/>
<polygon fill="#000000" stroke="#000000" points="1158.8759,-244.3221 1148.5841,-246.8382 1158.1986,-251.2893 1158.8759,-244.3221"/>
</g>
<!-- n33&#45;&gt;n8 -->
<g id="edge41" class="edge">
<title>n33&#45;&gt;n8</title>
<path fill="none" stroke="#000000" d="M2396.8486,-293.2043C2413.7198,-291.1618 2431.2473,-289.2973 2447.7376,-288 2721.453,-266.4675 3411.7994,-296.4548 3682.7376,-252 3687.1365,-251.2782 3691.6647,-250.3153 3696.1639,-249.2087"/>
<polygon fill="#000000" stroke="#000000" points="3697.1545,-252.5668 3705.9056,-246.5946 3695.3402,-245.806 3697.1545,-252.5668"/>
</g>
<!-- n33&#45;&gt;n9 -->
<g id="edge42" class="edge">
<title>n33&#45;&gt;n9</title>
<path fill="none" stroke="#000000" d="M2307.7376,-287.8314C2307.7376,-280.131 2307.7376,-270.9743 2307.7376,-262.4166"/>
<polygon fill="#000000" stroke="#000000" points="2311.2377,-262.4132 2307.7376,-252.4133 2304.2377,-262.4133 2311.2377,-262.4132"/>
</g>
<!-- n33&#45;&gt;n14 -->
<g id="edge38" class="edge">
<title>n33&#45;&gt;n14</title>
<path fill="none" stroke="#000000" d="M2190.462,-299.3615C2038.2327,-290.3976 1764.3964,-273.0914 1530.7376,-252 1516.7692,-250.7391 1502.1373,-249.2918 1487.6224,-247.7775"/>
<polygon fill="#000000" stroke="#000000" points="1487.914,-244.2889 1477.6019,-246.7198 1487.1792,-251.2502 1487.914,-244.2889"/>
</g>
<!-- n33&#45;&gt;n15 -->
<g id="edge39" class="edge">
<title>n33&#45;&gt;n15</title>
<path fill="none" stroke="#000000" d="M2398.3812,-293.3884C2414.7855,-291.379 2431.7547,-289.4786 2447.7376,-288 2729.211,-261.9599 2801.3005,-278.4298 3082.7376,-252 3094.5863,-250.8873 3106.9876,-249.5299 3119.2823,-248.0644"/>
<polygon fill="#000000" stroke="#000000" points="3120.0671,-251.4947 3129.5703,-246.8109 3119.2204,-244.5461 3120.0671,-251.4947"/>
</g>
<!-- n33&#45;&gt;n16 -->
<g id="edge37" class="edge">
<title>n33&#45;&gt;n16</title>
<path fill="none" stroke="#000000" d="M2209.3409,-294.6364C2114.8308,-283.7183 1968.0239,-266.75 1840.7376,-252 1828.1927,-250.5463 1815.0768,-249.0251 1802.0139,-247.5093"/>
<polygon fill="#000000" stroke="#000000" points="1802.3822,-244.0286 1792.0453,-246.3524 1801.5751,-250.982 1802.3822,-244.0286"/>
</g>
<!-- n33&#45;&gt;n18 -->
<g id="edge36" class="edge">
<title>n33&#45;&gt;n18</title>
<path fill="none" stroke="#000000" d="M2242.951,-290.5542C2196.3344,-279.4403 2133.2316,-264.3959 2083.829,-252.6178"/>
<polygon fill="#000000" stroke="#000000" points="2084.3624,-249.147 2073.8233,-250.2324 2082.739,-255.9561 2084.3624,-249.147"/>
</g>
<!-- n33&#45;&gt;n23 -->
<g id="edge43" class="edge">
<title>n33&#45;&gt;n23</title>
<path fill="none" stroke="#000000" d="M2370.8803,-290.3771C2415.8252,-279.2567 2476.403,-264.2684 2523.7997,-252.5413"/>
<polygon fill="#000000" stroke="#000000" points="2524.8366,-255.8904 2533.7032,-250.091 2523.1553,-249.0953 2524.8366,-255.8904"/>
</g>
<!-- n33&#45;&gt;n24 -->
<g id="edge40" class="edge">
<title>n33&#45;&gt;n24</title>
<path fill="none" stroke="#000000" d="M2186.1498,-301.184C2092.9844,-297.5129 1961.2429,-292.363 1845.7376,-288 1627.0806,-279.7406 1077.6942,-287.2397 861.7376,-252 857.2645,-251.2701 852.6576,-250.3115 848.0748,-249.2163"/>
<polygon fill="#000000" stroke="#000000" points="848.7008,-245.7628 838.142,-246.6363 846.9409,-252.538 848.7008,-245.7628"/>
</g>
<!-- n33&#45;&gt;n31 -->
<g id="edge33" class="edge">
<title>n33&#45;&gt;n31</title>
<path fill="none" stroke="#000000" d="M2401.096,-293.8189C2416.667,-291.8383 2432.6554,-289.8359 2447.7376,-288 2565.5397,-273.6603 2700.0828,-258.3058 2794.9449,-247.6499"/>
<polygon fill="#000000" stroke="#000000" points="2795.6064,-251.0977 2805.1536,-246.504 2794.8256,-244.1414 2795.6064,-251.0977"/>
</g>
<!-- n38 -->
<g id="node39" class="node">
<title>n38</title>
<ellipse fill="none" stroke="#000000" cx="3519.7376" cy="-234" rx="154.0727" ry="18"/>
<text text-anchor="middle" x="3519.7376" y="-230.3" font-family="Times,serif" font-size="14.00" fill="#000000">&lt;x86_64&#45;linux&#45;gnu/bits/pthreadtypes.h&gt;</text>
</g>
<!-- n33&#45;&gt;n38 -->
<g id="edge35" class="edge">
<title>n33&#45;&gt;n38</title>
<path fill="none" stroke="#000000" d="M2397.235,-293.2987C2413.9896,-291.2604 2431.3763,-289.3731 2447.7376,-288 2850.638,-254.1875 2953.551,-282.2081 3356.7376,-252 3371.5265,-250.892 3387.0456,-249.4896 3402.3854,-247.9586"/>
<polygon fill="#000000" stroke="#000000" points="3402.8366,-251.4308 3412.4306,-246.9357 3402.1274,-244.4668 3402.8366,-251.4308"/>
</g>
<!-- n35&#45;&gt;n8 -->
<g id="edge44" class="edge">
<title>n35&#45;&gt;n8</title>
<path fill="none" stroke="#000000" d="M2574.2637,-293.3354C2581.6077,-291.1833 2589.3561,-289.2445 2596.7376,-288 3072.9485,-207.7111 3206.3352,-331.1445 3682.7376,-252 3687.135,-251.2695 3691.6623,-250.3006 3696.1608,-249.1902"/>
<polygon fill="#000000" stroke="#000000" points="3697.1536,-252.5477 3705.9017,-246.571 3695.3359,-245.7878 3697.1536,-252.5477"/>
</g>
<!-- n36 -->
<g id="node37" class="node">
<title>n36</title>
<ellipse fill="none" stroke="#000000" cx="3594.7376" cy="-378" rx="73.387" ry="18"/>
<text text-anchor="middle" x="3594.7376" y="-374.3" font-family="Times,serif" font-size="14.00" fill="#000000">&quot;include&#45;stdlib.c&quot;</text>
</g>
<!-- n36&#45;&gt;n1 -->
<g id="edge45" class="edge">
<title>n36&#45;&gt;n1</title>
<path fill="none" stroke="#000000" d="M3594.7376,-359.8314C3594.7376,-352.131 3594.7376,-342.9743 3594.7376,-334.4166"/>
<polygon fill="#000000" stroke="#000000" points="3598.2377,-334.4132 3594.7376,-324.4133 3591.2377,-334.4133 3598.2377,-334.4132"/>
</g>
<!-- n38&#45;&gt;n26 -->
<g id="edge46" class="edge">
<title>n38&#45;&gt;n26</title>
<path fill="none" stroke="#000000" d="M3609.3699,-219.2995C3680.6495,-207.609 3780.4603,-191.2391 3855.1558,-178.9884"/>
<polygon fill="#000000" stroke="#000000" points="3855.7585,-182.4364 3865.0601,-177.364 3854.6255,-175.5287 3855.7585,-182.4364"/>
</g>
</g>
</svg>
